<svg data-v-423bf9ae="" xmlns="http://www.w3.org/2000/svg" viewBox="0 0 375 90" class="iconLeft"><!----><!----><!----><g data-v-423bf9ae="" id="28be6050-3081-4648-9735-130841eabaff" fill="white" transform="matrix(5.725190568780254,0,0,5.725190568780254,130.07229278550273,-1.603052241785143)"><path d="M2.49 8.44L2.49 4.38L4.83 4.38C6.78 4.38 7.27 5.38 7.27 6.36C7.27 7.42 6.78 8.44 4.83 8.44ZM4.90 9.39C6.61 9.39 8.34 8.62 8.34 6.36C8.34 4.09 6.61 3.43 4.90 3.43L1.61 3.43C1.44 3.43 1.39 3.46 1.39 3.65L1.39 13.01C1.39 13.17 1.43 13.23 1.61 13.23L2.27 13.23C2.45 13.23 2.49 13.17 2.49 13.01L2.49 9.39ZM13.99 13.23C15.83 13.23 17.43 12.50 17.43 10.53C17.43 8.97 16.02 8.36 15.47 8.19L15.47 8.18C16.07 7.95 17.07 7.38 17.07 6.15C17.07 4.09 15.23 3.43 13.64 3.43L10.25 3.43C10.08 3.43 10.02 3.49 10.02 3.65L10.02 13.01C10.02 13.19 10.08 13.23 10.25 13.23ZM11.13 12.28L11.13 8.68L14.03 8.68C15.32 8.68 16.30 9.46 16.30 10.42C16.30 11.59 15.60 12.28 13.90 12.28ZM11.13 7.76L11.13 4.38L13.57 4.38C15.01 4.38 15.95 4.96 15.95 6.24C15.95 7.15 15.09 7.76 13.89 7.76ZM18.72 9.67C18.72 11.72 20.36 13.38 22.40 13.38C24.44 13.38 26.08 11.72 26.08 9.67C26.08 7.63 24.44 5.95 22.40 5.95C20.36 5.95 18.72 7.63 18.72 9.67ZM22.40 12.45C20.94 12.45 19.77 11.21 19.77 9.67C19.77 8.13 20.94 6.90 22.40 6.90C23.87 6.90 25.05 8.13 25.05 9.67C25.05 11.21 23.87 12.45 22.40 12.45ZM27.38 9.67C27.38 11.72 29.02 13.38 31.07 13.38C33.11 13.38 34.75 11.72 34.75 9.67C34.75 7.63 33.11 5.95 31.07 5.95C29.02 5.95 27.38 7.63 27.38 9.67ZM31.07 12.45C29.61 12.45 28.43 11.21 28.43 9.67C28.43 8.13 29.61 6.90 31.07 6.90C32.54 6.90 33.71 8.13 33.71 9.67C33.71 11.21 32.54 12.45 31.07 12.45ZM38.89 9.45L42.39 6.33C42.50 6.22 42.46 6.10 42.32 6.10L41.44 6.10C41.29 6.10 41.22 6.16 41.08 6.33L37.83 9.24L37.83 3.12C37.83 2.95 37.79 2.90 37.60 2.90L37.00 2.90C36.83 2.90 36.78 2.95 36.78 3.12L36.78 13.01C36.78 13.17 36.83 13.23 37.00 13.23L37.60 13.23C37.77 13.23 37.83 13.17 37.83 13.01L37.83 9.73L41.26 13.01C41.40 13.17 41.47 13.23 41.62 13.23L42.52 13.23C42.64 13.23 42.74 13.17 42.59 13.01Z"></path></g><!----><g data-v-423bf9ae="" id="01afc5ff-af94-464a-a211-1fa0d9fc0a1a" transform="matrix(1.2429737854471774,0,0,1.2429737854471774,-2.665350119915985,-12.60516518894238)" stroke="none" fill="white"><path d="M96.745 23.405c-2.492-2.491-5.122-4.505-7.868-6.084v-2.906a3.029 3.029 0 00-2.525-2.988 49.51 49.51 0 00-8.211-.705c-14.937 0-24.331 7.179-28.153 10.84-3.943-2.874-12.827-8.326-23.479-8.326-8.48 0-16.199 3.421-22.945 10.167a3.029 3.029 0 00-.888 2.143V78.75c0 1.048.545 2.02 1.435 2.57.889.554 2.004.61 2.944.144.077-.038 7.826-3.798 19.142-3.798 7.77 0 15.395 1.74 22.663 5.172l.014.005a2.991 2.991 0 00.679.219c.198.04.399.067.601.067.017 0 .033-.005.049-.005.152-.003.303-.019.454-.043a3.017 3.017 0 001.556-.578c7.039-3.199 14.4-4.836 21.899-4.836 11.314 0 19.063 3.76 19.136 3.795.94.471 2.055.419 2.948-.134a3.028 3.028 0 001.438-2.577V25.547a3.04 3.04 0 00-.889-2.142zM53.438 26.68c2.297-2.403 10.59-9.897 24.703-9.897 1.531 0 3.096.089 4.678.266v47.085a39.606 39.606 0 00-3.344-.139c-5.832 0-16.207 1.305-26.037 9.112V26.68zm-44.7 47.642V26.831c5.344-4.998 11.317-7.532 17.771-7.532 9.594 0 17.816 5.566 20.615 7.699V75.508c-6.769-2.592-13.788-3.904-20.927-3.904-7.54 0-13.639 1.47-17.459 2.718zm82.836.001c-3.821-1.248-9.922-2.718-17.461-2.718-2.076 0-4.14.124-6.192.346a35.987 35.987 0 0111.552-1.896c3.438 0 5.656.508 5.67.51a3.04 3.04 0 002.582-.567 3.035 3.035 0 001.152-2.38V24.353c.912.823 1.816 1.657 2.697 2.479v47.491z"></path></g><!----></svg>