<svg data-v-423bf9ae="" xmlns="http://www.w3.org/2000/svg" viewBox="0 0 353 112" class="iconLeftSlogan"><!----><!----><!----><g data-v-423bf9ae="" id="8e21fffe-416d-4e0d-ac8e-9e114915d2a3" fill="#22255B" transform="matrix(5.725190568780254,0,0,5.725190568780254,108.02364776597149,-16.603052241785143)"><path d="M2.49 8.44L2.49 4.38L4.83 4.38C6.78 4.38 7.27 5.38 7.27 6.36C7.27 7.42 6.78 8.44 4.83 8.44ZM4.90 9.39C6.61 9.39 8.34 8.62 8.34 6.36C8.34 4.09 6.61 3.43 4.90 3.43L1.61 3.43C1.44 3.43 1.39 3.46 1.39 3.65L1.39 13.01C1.39 13.17 1.43 13.23 1.61 13.23L2.27 13.23C2.45 13.23 2.49 13.17 2.49 13.01L2.49 9.39ZM13.99 13.23C15.83 13.23 17.43 12.50 17.43 10.53C17.43 8.97 16.02 8.36 15.47 8.19L15.47 8.18C16.07 7.95 17.07 7.38 17.07 6.15C17.07 4.09 15.23 3.43 13.64 3.43L10.25 3.43C10.08 3.43 10.02 3.49 10.02 3.65L10.02 13.01C10.02 13.19 10.08 13.23 10.25 13.23ZM11.13 12.28L11.13 8.68L14.03 8.68C15.32 8.68 16.30 9.46 16.30 10.42C16.30 11.59 15.60 12.28 13.90 12.28ZM11.13 7.76L11.13 4.38L13.57 4.38C15.01 4.38 15.95 4.96 15.95 6.24C15.95 7.15 15.09 7.76 13.89 7.76ZM18.72 9.67C18.72 11.72 20.36 13.38 22.40 13.38C24.44 13.38 26.08 11.72 26.08 9.67C26.08 7.63 24.44 5.95 22.40 5.95C20.36 5.95 18.72 7.63 18.72 9.67ZM22.40 12.45C20.94 12.45 19.77 11.21 19.77 9.67C19.77 8.13 20.94 6.90 22.40 6.90C23.87 6.90 25.05 8.13 25.05 9.67C25.05 11.21 23.87 12.45 22.40 12.45ZM27.38 9.67C27.38 11.72 29.02 13.38 31.07 13.38C33.11 13.38 34.75 11.72 34.75 9.67C34.75 7.63 33.11 5.95 31.07 5.95C29.02 5.95 27.38 7.63 27.38 9.67ZM31.07 12.45C29.61 12.45 28.43 11.21 28.43 9.67C28.43 8.13 29.61 6.90 31.07 6.90C32.54 6.90 33.71 8.13 33.71 9.67C33.71 11.21 32.54 12.45 31.07 12.45ZM38.89 9.45L42.39 6.33C42.50 6.22 42.46 6.10 42.32 6.10L41.44 6.10C41.29 6.10 41.22 6.16 41.08 6.33L37.83 9.24L37.83 3.12C37.83 2.95 37.79 2.90 37.60 2.90L37.00 2.90C36.83 2.90 36.78 2.95 36.78 3.12L36.78 13.01C36.78 13.17 36.83 13.23 37.00 13.23L37.60 13.23C37.77 13.23 37.83 13.17 37.83 13.01L37.83 9.73L41.26 13.01C41.40 13.17 41.47 13.23 41.62 13.23L42.52 13.23C42.64 13.23 42.74 13.17 42.59 13.01Z"></path></g><defs data-v-423bf9ae=""><linearGradient data-v-423bf9ae="" gradientTransform="rotate(25)" id="42917503-555d-4c84-9b6e-b436909f8506" x1="0%" y1="0%" x2="100%" y2="0%"><stop data-v-423bf9ae="" offset="0%" style="stop-color: rgb(81, 6, 255); stop-opacity: 1;"></stop><stop data-v-423bf9ae="" offset="100%" style="stop-color: rgb(97, 203, 242); stop-opacity: 1;"></stop></linearGradient></defs><g data-v-423bf9ae="" id="daa19750-7369-43ff-942f-e41ace80d89a" transform="matrix(1.1111158582899305,0,0,1.1111158582899305,0.009179687343241483,0.44401843124675366)" stroke="none" fill="url(#42917503-555d-4c84-9b6e-b436909f8506)"><path d="M85.299 20.57c-.684-.532-1.556-.654-2.326-.319L45.799 36.348c-1.616.703-3.639 1.042-5.717 1.042-2.897.008-5.895-.667-7.984-1.586a9.524 9.524 0 01-1.813-.998c.162-.079.346-.162.562-.246l33.818-14.637 5.047 2.159v-6.308c0-.939-.398-1.829-1.082-2.354-.685-.532-1.56-.654-2.322-.319L29.1 29.196c-1.146.466-2.131 1.031-2.967 1.86-.819.801-1.527 2.124-1.516 3.593 0 .04.011.105.011.105v56.681c0 .022-.007.049-.007.075 0 .019.007.026.007.045v.061h.008c.083 2.007 1.078 3.288 2.033 4.134 3.004 2.648 8.046 4.13 13.407 4.25 2.54 0 5.12-.402 7.502-1.409L84.76 82.477c.984-.402 1.623-1.473 1.623-2.649v-56.9c-.002-.938-.407-1.826-1.084-2.358z"></path><path d="M61.722 9.794c-.067-.849-.413-1.65-1.045-2.138-.68-.532-1.556-.654-2.33-.319L21.176 23.433c-1.616.699-3.643 1.043-5.718 1.043-2.897.004-5.896-.671-7.985-1.589a9.632 9.632 0 01-1.812-.994 7.23 7.23 0 01.562-.246L40.037 7.009l5.04 2.159V2.86c0-.939-.408-1.828-1.092-2.354-.678-.532-1.567-.656-2.332-.319L4.479 16.282c-1.146.462-2.127 1.028-2.963 1.86-.823.801-1.527 2.124-1.516 3.595a.75.75 0 00.011.103v56.683c0 .022-.004.053-.004.075 0 .015.004.022.004.082v.075h.007c.081 2.007 1.079 3.288 2.033 4.123 3.004 2.649 8.046 4.085 13.41 4.22 1.447 0 2.901-.188 4.333-.458V34.769a9.842 9.842 0 012.933-7.142c1.227-1.212 2.724-2.17 4.579-2.909L61.722 9.794z"></path></g><!----><g data-v-423bf9ae="" id="516025f1-bdd1-4617-993a-ae6ef729893e" fill="#22255B" transform="matrix(0.6515085615241857,0,0,0.6515085615241857,115.73409850133493,58.214866260916494)"><path d="M0.96 3.64L0.38 3.64L0.39 3.08L3.90 3.08L3.90 3.64L3.67 3.64Q3.12 3.64 2.95 3.73L2.95 3.73Q2.82 3.81 2.82 4.28L2.82 4.28L2.82 11.22Q2.82 11.68 2.93 11.77Q3.04 11.87 3.57 11.87L3.57 11.87L4.12 11.87L4.13 12.41L0.55 12.41L0.53 11.87L0.90 11.87Q1.46 11.87 1.57 11.77Q1.68 11.67 1.68 11.25L1.68 11.25L1.68 4.14Q1.68 3.77 1.58 3.71L1.58 3.71Q1.47 3.64 0.96 3.64L0.96 3.64ZM21.45 12.41L21.44 11.87L21.61 11.87Q22.00 11.87 22.13 11.73L22.13 11.73Q22.25 11.57 22.59 10.83L22.59 10.83L23.50 8.82L24.07 7.53Q24.34 6.97 24.38 6.86L24.38 6.86Q24.45 6.70 24.50 6.60Q24.55 6.51 24.56 6.45L24.56 6.45L24.66 6.21L26.09 2.74L26.38 2.74Q27.23 4.98 29.42 10.25L29.42 10.25Q29.87 11.34 30.06 11.64L30.06 11.64Q30.20 11.87 30.64 11.87L30.64 11.87L30.85 11.87L30.84 12.41L27.64 12.41L27.66 11.87L28.08 11.87Q28.69 11.87 28.69 11.70L28.69 11.70Q28.69 11.63 28.55 11.27L28.55 11.27L27.51 8.72L24.27 8.72L23.16 11.18Q23.02 11.50 23.02 11.63L23.02 11.63Q23.02 11.79 23.12 11.83Q23.21 11.87 23.60 11.87L23.60 11.87L24.17 11.87L24.17 12.41L21.45 12.41ZM25.95 4.79L24.53 8.10L27.28 8.10L25.95 4.79ZM41.75 12.41L38.73 12.41L38.73 11.87L38.86 11.87Q39.45 11.87 39.57 11.77L39.57 11.77Q39.69 11.68 39.70 11.21L39.70 11.21L39.83 4.38Q39.83 4.35 39.84 4.28Q39.85 4.21 39.85 4.17L39.85 4.17L39.85 4.01Q39.85 3.76 39.77 3.71L39.77 3.71Q39.68 3.64 39.45 3.64L39.45 3.64L38.74 3.64L38.73 3.08L40.84 3.08L44.03 10.55L47.17 3.08L49.40 3.08L49.40 3.64L48.93 3.64Q48.48 3.64 48.36 3.71L48.36 3.71Q48.20 3.79 48.20 4.08L48.20 4.08L48.20 11.22Q48.20 11.68 48.31 11.77Q48.43 11.87 49.05 11.87L49.05 11.87L49.33 11.87L49.35 12.41L45.95 12.41L45.93 11.87L46.21 11.87Q46.83 11.87 46.94 11.77L46.94 11.77Q47.07 11.66 47.07 11.25L47.07 11.25L47.07 4.83L44.91 9.91L44.06 12.02Q43.92 12.37 43.88 12.44Q43.83 12.51 43.76 12.51L43.76 12.51Q43.67 12.51 43.22 11.52L43.22 11.52L40.41 5.01L40.35 11.39Q40.35 11.74 40.54 11.80L40.54 11.80Q40.78 11.87 41.75 11.87L41.75 11.87L41.75 12.41ZM67.04 3.64L66.64 3.64L66.67 3.08L69.77 3.08Q71.51 3.08 72.29 3.75L72.29 3.75Q73.06 4.42 73.06 5.37L73.06 5.37Q73.06 6.08 72.52 6.60L72.52 6.60Q71.96 7.14 71.26 7.35L71.26 7.35Q72.34 7.57 72.88 8.34L72.88 8.34Q73.40 9.08 73.39 10.01L73.39 10.01Q73.39 11.01 72.76 11.59L72.76 11.59Q72.16 12.13 71.21 12.28L71.21 12.28Q70.29 12.41 68.74 12.41L68.74 12.41L66.76 12.41L66.76 11.87L67.18 11.87Q67.54 11.87 67.65 11.80Q67.76 11.73 67.76 11.46L67.76 11.46L67.76 4.14Q67.76 3.81 67.61 3.72L67.61 3.72Q67.48 3.64 67.04 3.64L67.04 3.64ZM68.87 7.59L68.87 7.59L68.90 11.35Q68.90 11.63 69.07 11.71Q69.23 11.80 69.81 11.80L69.81 11.80Q72.06 11.80 72.06 9.91L72.06 9.91Q72.06 9.22 71.74 8.73L71.74 8.73Q71.43 8.24 70.90 8.02L70.90 8.02Q70.31 7.75 69.88 7.68L69.88 7.68Q69.40 7.59 68.87 7.59ZM68.90 4.01L68.90 7.19L70.27 7.19Q70.93 7.19 71.35 6.66L71.35 6.66Q71.75 6.15 71.76 5.54L71.76 5.54Q71.76 4.85 71.17 4.27L71.17 4.27Q70.59 3.69 69.32 3.69L69.32 3.69Q68.90 3.69 68.90 4.01L68.90 4.01ZM81.45 3.64L81.44 3.08L88.65 3.08Q88.66 4.14 88.72 5.28L88.72 5.28L88.17 5.30Q88.16 4.66 88.10 4.25L88.10 4.25Q88.06 3.89 88.01 3.80L88.01 3.80Q87.95 3.71 87.83 3.69L87.83 3.69Q87.74 3.68 87.15 3.68L87.15 3.68L84.77 3.68Q84.23 3.68 84.08 3.77L84.08 3.77Q83.96 3.86 83.96 4.33L83.96 4.33L83.96 6.28Q83.96 6.69 84.01 6.76L84.01 6.76Q84.08 6.84 84.42 6.84L84.42 6.84L86.54 6.84Q86.90 6.84 86.98 6.73L86.98 6.73Q87.06 6.63 87.07 6.14L87.07 6.14L87.07 5.61L87.58 5.63L87.58 8.97L87.07 8.97L87.07 8.24Q87.07 7.66 86.99 7.57L86.99 7.57Q86.91 7.46 86.56 7.46L86.56 7.46L84.46 7.46Q84.13 7.46 84.04 7.54Q83.96 7.63 83.96 7.89L83.96 7.89L83.96 11.20Q83.96 11.57 84.04 11.67Q84.13 11.77 84.40 11.77L84.40 11.77Q87.32 11.75 87.85 11.69L87.85 11.69Q88.37 11.63 88.45 11.38L88.45 11.38L88.46 11.36L88.46 11.35L88.69 10.17L89.17 10.25L88.82 12.41L81.72 12.41L81.72 11.87L82.09 11.87Q82.65 11.87 82.73 11.80L82.73 11.80Q82.82 11.72 82.82 11.33L82.82 11.33L82.82 4.24Q82.82 3.82 82.67 3.73L82.67 3.73Q82.50 3.64 81.85 3.64L81.85 3.64L81.45 3.64ZM97.43 8.02L97.43 8.02Q97.43 6.86 97.90 5.83L97.90 5.83Q98.36 4.85 99.11 4.27L99.11 4.27Q99.86 3.69 100.75 3.37Q101.65 3.05 102.49 3.05L102.49 3.05Q103.36 3.05 104.03 3.16L104.03 3.16Q104.66 3.26 104.95 3.37L104.95 3.37Q105.26 3.48 105.29 3.48L105.29 3.48Q105.46 3.48 105.49 3.41L105.49 3.41Q105.51 3.33 105.51 3.09L105.51 3.09L105.51 2.97L106.05 2.97Q106.09 4.30 106.22 5.64L106.22 5.64L105.71 5.65Q105.68 5.40 105.67 5.26L105.67 5.26Q105.67 5.20 105.66 5.13Q105.66 5.07 105.65 5.02Q105.64 4.98 105.64 4.95L105.64 4.95Q105.62 4.84 105.62 4.74L105.62 4.74Q105.62 4.68 105.57 4.59L105.57 4.59Q105.57 4.57 105.54 4.55Q105.51 4.52 105.51 4.50L105.51 4.50Q105.49 4.44 105.42 4.41L105.42 4.41Q105.38 4.38 105.35 4.37Q105.32 4.36 105.29 4.35L105.29 4.35Q105.28 4.35 105.26 4.33Q105.23 4.31 105.19 4.29Q105.15 4.27 105.11 4.25L105.11 4.25Q104.88 4.16 104.86 4.14L104.86 4.14Q104.51 3.96 103.87 3.83L103.87 3.83Q103.20 3.71 102.53 3.71L102.53 3.71Q100.81 3.71 99.72 4.84L99.72 4.84Q98.61 5.99 98.62 7.62L98.62 7.62Q98.62 9.35 99.83 10.69L99.83 10.69Q101.04 12.02 102.85 12.02L102.85 12.02Q103.86 12.02 104.80 11.49L104.80 11.49Q105.75 10.94 105.78 10.58L105.78 10.58L105.82 9.41L106.31 9.41L106.23 11.45Q106.16 11.49 106.03 11.57L106.03 11.57Q105.98 11.60 105.51 11.85L105.51 11.85Q105.14 12.05 104.69 12.23L104.69 12.23Q104.33 12.39 103.68 12.51L103.68 12.51Q103.07 12.63 102.50 12.64L102.50 12.64Q100.13 12.64 98.77 11.39L98.77 11.39Q97.43 10.14 97.43 8.02ZM114.36 12.41L114.34 11.87L114.52 11.87Q114.91 11.87 115.04 11.73L115.04 11.73Q115.16 11.57 115.49 10.83L115.49 10.83L116.40 8.82L116.98 7.53Q117.24 6.97 117.28 6.86L117.28 6.86Q117.35 6.70 117.40 6.60Q117.46 6.51 117.47 6.45L117.47 6.45L117.56 6.21L118.99 2.74L119.29 2.74Q120.14 4.98 122.33 10.25L122.33 10.25Q122.78 11.34 122.97 11.64L122.97 11.64Q123.11 11.87 123.55 11.87L123.55 11.87L123.76 11.87L123.74 12.41L120.55 12.41L120.57 11.87L120.98 11.87Q121.60 11.87 121.60 11.70L121.60 11.70Q121.60 11.63 121.46 11.27L121.46 11.27L120.42 8.72L117.17 8.72L116.07 11.18Q115.93 11.50 115.93 11.63L115.93 11.63Q115.93 11.79 116.03 11.83Q116.12 11.87 116.50 11.87L116.50 11.87L117.08 11.87L117.08 12.41L114.36 12.41ZM118.86 4.79L117.44 8.10L120.18 8.10L118.86 4.79ZM131.87 3.64L131.49 3.64L131.49 3.08L134.85 3.08L134.87 3.64L134.33 3.64Q133.90 3.64 133.75 3.73L133.75 3.73Q133.57 3.83 133.57 4.16L133.57 4.16L133.57 9.33Q133.57 9.63 133.61 9.78L133.61 9.78Q133.65 10.01 133.81 10.41L133.81 10.41Q133.98 10.80 134.28 11.09L134.28 11.09Q134.59 11.40 135.15 11.63L135.15 11.63Q135.72 11.85 136.50 11.85L136.50 11.85Q137.35 11.85 137.90 11.67L137.90 11.67Q138.46 11.48 138.77 11.22Q139.08 10.96 139.22 10.49L139.22 10.49Q139.39 9.95 139.40 9.66L139.40 9.66Q139.43 9.18 139.43 8.67L139.43 8.67L139.43 4.14Q139.43 3.81 139.29 3.72L139.29 3.72Q139.14 3.64 138.66 3.64L138.66 3.64L138.17 3.64L138.20 3.08L140.83 3.08L140.83 3.64L140.64 3.64Q140.31 3.64 140.20 3.75Q140.09 3.86 140.09 4.25L140.09 4.25L140.09 9.22Q140.09 12.67 136.50 12.67L136.50 12.67Q134.33 12.67 133.38 11.76L133.38 11.76Q132.45 10.86 132.45 9.41L132.45 9.41L132.45 4.14Q132.45 3.81 132.34 3.72L132.34 3.72Q132.23 3.64 131.87 3.64L131.87 3.64ZM148.54 10.04L148.54 10.04L149.03 9.98L149.21 10.85Q149.32 11.33 149.39 11.41Q149.46 11.49 149.87 11.64L149.87 11.64Q150.71 11.95 151.61 11.95L151.61 11.95Q152.39 11.95 152.93 11.49L152.93 11.49Q153.47 11.04 153.47 10.26L153.47 10.26Q153.47 9.65 153.01 9.21L153.01 9.21Q152.53 8.76 151.68 8.30L151.68 8.30L151.10 7.98Q150.36 7.55 150.12 7.36L150.12 7.36Q149.76 7.08 149.45 6.59Q149.14 6.10 149.14 5.46L149.14 5.46Q149.14 4.39 149.98 3.68Q150.82 2.97 151.93 2.97L151.93 2.97Q152.21 2.97 152.56 3.04L152.56 3.04Q152.76 3.08 153.09 3.17L153.09 3.17L153.33 3.25Q153.43 3.25 153.47 3.16L153.47 3.16Q153.52 3.05 153.52 2.98L153.52 2.98L153.54 2.88L154.01 2.85L154.23 5.41L153.72 5.43L153.60 4.18Q152.85 3.62 151.69 3.62L151.69 3.62Q151.05 3.62 150.54 4.05L150.54 4.05Q150.06 4.47 150.06 5.12L150.06 5.12Q150.06 5.72 150.51 6.17L150.51 6.17Q150.94 6.60 151.81 7.08L151.81 7.08L152.58 7.50Q153.54 8.03 154.07 8.59Q154.60 9.15 154.60 9.92L154.60 9.92Q154.60 10.99 153.75 11.76L153.75 11.76Q152.88 12.54 151.42 12.54L151.42 12.54Q150.86 12.54 150.36 12.41Q149.86 12.29 149.80 12.29L149.80 12.29Q149.55 12.29 149.55 12.58L149.55 12.58L149.56 12.76L149.08 12.80Q149.02 12.41 148.54 10.04ZM162.80 3.64L162.78 3.08L170.00 3.08Q170.01 4.14 170.06 5.28L170.06 5.28L169.52 5.30Q169.50 4.66 169.45 4.25L169.45 4.25Q169.41 3.89 169.35 3.80L169.35 3.80Q169.30 3.71 169.18 3.69L169.18 3.69Q169.09 3.68 168.50 3.68L168.50 3.68L166.12 3.68Q165.57 3.68 165.43 3.77L165.43 3.77Q165.31 3.86 165.31 4.33L165.31 4.33L165.31 6.28Q165.31 6.69 165.36 6.76L165.36 6.76Q165.43 6.84 165.77 6.84L165.77 6.84L167.88 6.84Q168.25 6.84 168.33 6.73L168.33 6.73Q168.41 6.63 168.42 6.14L168.42 6.14L168.42 5.61L168.93 5.63L168.93 8.97L168.42 8.97L168.42 8.24Q168.42 7.66 168.34 7.57L168.34 7.57Q168.26 7.46 167.91 7.46L167.91 7.46L165.81 7.46Q165.48 7.46 165.39 7.54Q165.31 7.63 165.31 7.89L165.31 7.89L165.31 11.20Q165.31 11.57 165.39 11.67Q165.48 11.77 165.75 11.77L165.75 11.77Q168.67 11.75 169.20 11.69L169.20 11.69Q169.72 11.63 169.80 11.38L169.80 11.38L169.80 11.36L169.81 11.35L170.04 10.17L170.52 10.25L170.17 12.41L163.06 12.41L163.06 11.87L163.43 11.87Q163.99 11.87 164.08 11.80L164.08 11.80Q164.17 11.72 164.17 11.33L164.17 11.33L164.17 4.24Q164.17 3.82 164.02 3.73L164.02 3.73Q163.85 3.64 163.19 3.64L163.19 3.64L162.80 3.64ZM188.10 3.64L188.10 3.64L188.12 3.08L191.26 3.08L191.26 3.64L190.98 3.64Q190.52 3.64 190.42 3.66L190.42 3.66Q190.24 3.71 190.24 3.82L190.24 3.82Q190.24 3.89 190.50 4.31L190.50 4.31L192.50 7.46L194.95 3.99Q195.03 3.83 195.04 3.82L195.04 3.82Q195.04 3.64 194.12 3.64L194.12 3.64L193.90 3.64L193.89 3.08L196.43 3.08L196.43 3.64L196.36 3.64Q196.01 3.64 195.87 3.72L195.87 3.72Q195.71 3.80 195.43 4.22L195.43 4.22L192.70 8.17L192.70 11.22Q192.70 11.66 192.81 11.77L192.81 11.77Q192.90 11.87 193.52 11.87L193.52 11.87L194.15 11.87L194.13 12.41L190.20 12.41L190.22 11.87L190.78 11.87Q191.31 11.87 191.44 11.79Q191.56 11.70 191.56 11.25L191.56 11.25L191.56 8.06L189.27 4.49Q188.85 3.84 188.72 3.73L188.72 3.73Q188.61 3.64 188.10 3.64ZM204.55 7.83L204.55 7.83Q204.55 6.62 204.96 5.68L204.96 5.68Q205.37 4.72 206.06 4.12L206.06 4.12Q206.75 3.51 207.61 3.19L207.61 3.19Q208.46 2.88 209.41 2.88L209.41 2.88Q210.66 2.88 211.72 3.40L211.72 3.40Q212.80 3.93 213.51 5.07L213.51 5.07Q214.20 6.17 214.21 7.75L214.21 7.75Q214.21 8.70 213.90 9.54Q213.60 10.38 212.99 11.10Q212.39 11.81 211.45 12.22L211.45 12.22Q210.49 12.63 209.30 12.64L209.30 12.64Q208.16 12.64 207.22 12.23Q206.29 11.83 205.73 11.14L205.73 11.14Q205.15 10.45 204.86 9.60L204.86 9.60Q204.55 8.72 204.55 7.83ZM205.81 7.38L205.81 7.38Q205.81 8.52 206.24 9.60L206.24 9.60Q206.64 10.64 207.57 11.33L207.57 11.33Q208.48 12.03 209.67 12.04L209.67 12.04Q211.05 12.04 211.98 11.01L211.98 11.01Q212.93 9.97 212.93 8.10L212.93 8.10Q212.93 5.99 211.77 4.72L211.77 4.72Q210.62 3.46 209.11 3.45L209.11 3.45Q208.59 3.45 208.05 3.65Q207.50 3.85 207.00 4.25L207.00 4.25Q206.45 4.68 206.13 5.48L206.13 5.48Q205.81 6.27 205.81 7.38ZM222.71 3.64L222.33 3.64L222.33 3.08L225.69 3.08L225.70 3.64L225.17 3.64Q224.74 3.64 224.58 3.73L224.58 3.73Q224.41 3.83 224.41 4.16L224.41 4.16L224.41 9.33Q224.41 9.63 224.44 9.78L224.44 9.78Q224.49 10.01 224.65 10.41L224.65 10.41Q224.82 10.80 225.11 11.09L225.11 11.09Q225.42 11.40 225.98 11.63L225.98 11.63Q226.56 11.85 227.34 11.85L227.34 11.85Q228.19 11.85 228.74 11.67L228.74 11.67Q229.30 11.48 229.61 11.22Q229.91 10.96 230.06 10.49L230.06 10.49Q230.23 9.95 230.23 9.66L230.23 9.66Q230.26 9.18 230.27 8.67L230.27 8.67L230.27 4.14Q230.27 3.81 230.13 3.72L230.13 3.72Q229.97 3.64 229.50 3.64L229.50 3.64L229.00 3.64L229.03 3.08L231.66 3.08L231.66 3.64L231.47 3.64Q231.15 3.64 231.04 3.75Q230.92 3.86 230.92 4.25L230.92 4.25L230.92 9.22Q230.92 12.67 227.34 12.67L227.34 12.67Q225.17 12.67 224.22 11.76L224.22 11.76Q223.28 10.86 223.28 9.41L223.28 9.41L223.28 4.14Q223.28 3.81 223.18 3.72L223.18 3.72Q223.07 3.64 222.71 3.64L222.71 3.64ZM248.99 12.41L248.97 11.87L249.14 11.87Q249.53 11.87 249.66 11.73L249.66 11.73Q249.79 11.57 250.12 10.83L250.12 10.83L251.03 8.82L251.60 7.53Q251.87 6.97 251.91 6.86L251.91 6.86Q251.98 6.70 252.03 6.60Q252.08 6.51 252.10 6.45L252.10 6.45L252.19 6.21L253.62 2.74L253.91 2.74Q254.77 4.98 256.96 10.25L256.96 10.25Q257.41 11.34 257.60 11.64L257.60 11.64Q257.74 11.87 258.17 11.87L258.17 11.87L258.38 11.87L258.37 12.41L255.18 12.41L255.19 11.87L255.61 11.87Q256.22 11.87 256.22 11.70L256.22 11.70Q256.22 11.63 256.09 11.27L256.09 11.27L255.05 8.72L251.80 8.72L250.69 11.18Q250.56 11.50 250.56 11.63L250.56 11.63Q250.56 11.79 250.65 11.83Q250.75 11.87 251.13 11.87L251.13 11.87L251.71 11.87L251.71 12.41L248.99 12.41ZM253.48 4.79L252.07 8.10L254.81 8.10L253.48 4.79ZM266.45 3.64L266.06 3.64L266.08 3.08L269.29 3.08Q270.43 3.08 271.03 3.21L271.03 3.21Q271.67 3.37 272.14 3.75L272.14 3.75Q273.14 4.57 273.14 5.71L273.14 5.71Q273.14 6.43 272.67 7.04L272.67 7.04Q272.18 7.66 271.15 7.92L271.15 7.92L273.83 11.49Q274.14 11.87 274.44 11.87L274.44 11.87L275.04 11.87L275.06 12.41L273.03 12.41L270.04 8.10L269.87 8.10Q269.83 8.10 269.77 8.11Q269.72 8.11 269.71 8.11L269.71 8.11Q268.82 8.11 268.43 8.03L268.43 8.03L268.43 11.46Q268.43 11.76 268.57 11.81L268.57 11.81Q268.69 11.87 269.40 11.87L269.40 11.87L270.11 11.87L270.08 12.41L266.36 12.41L266.36 11.87L266.68 11.87Q267.14 11.87 267.21 11.81L267.21 11.81Q267.29 11.74 267.29 11.46L267.29 11.46L267.29 4.14Q267.29 3.82 267.10 3.73L267.10 3.73Q266.88 3.64 266.45 3.64L266.45 3.64ZM268.43 4.28L268.43 7.57Q268.61 7.70 269.32 7.71L269.32 7.71Q270.59 7.71 271.17 7.27L271.17 7.27Q271.76 6.84 271.76 5.92L271.76 5.92Q271.76 4.92 270.99 4.27L270.99 4.27Q270.23 3.64 268.85 3.64L268.85 3.64Q268.60 3.64 268.52 3.75L268.52 3.75Q268.43 3.84 268.43 4.28L268.43 4.28ZM282.83 3.64L282.82 3.08L290.03 3.08Q290.04 4.14 290.10 5.28L290.10 5.28L289.55 5.30Q289.54 4.66 289.48 4.25L289.48 4.25Q289.44 3.89 289.39 3.80L289.39 3.80Q289.33 3.71 289.21 3.69L289.21 3.69Q289.12 3.68 288.53 3.68L288.53 3.68L286.15 3.68Q285.61 3.68 285.46 3.77L285.46 3.77Q285.34 3.86 285.34 4.33L285.34 4.33L285.34 6.28Q285.34 6.69 285.39 6.76L285.39 6.76Q285.46 6.84 285.80 6.84L285.80 6.84L287.92 6.84Q288.28 6.84 288.36 6.73L288.36 6.73Q288.44 6.63 288.45 6.14L288.45 6.14L288.45 5.61L288.96 5.63L288.96 8.97L288.45 8.97L288.45 8.24Q288.45 7.66 288.37 7.57L288.37 7.57Q288.29 7.46 287.94 7.46L287.94 7.46L285.84 7.46Q285.51 7.46 285.42 7.54Q285.34 7.63 285.34 7.89L285.34 7.89L285.34 11.20Q285.34 11.57 285.42 11.67Q285.51 11.77 285.78 11.77L285.78 11.77Q288.70 11.75 289.23 11.69L289.23 11.69Q289.75 11.63 289.83 11.38L289.83 11.38L289.84 11.36L289.84 11.35L290.07 10.17L290.55 10.25L290.20 12.41L283.10 12.41L283.10 11.87L283.47 11.87Q284.03 11.87 284.11 11.80L284.11 11.80Q284.20 11.72 284.20 11.33L284.20 11.33L284.20 4.24Q284.20 3.82 284.05 3.73L284.05 3.73Q283.88 3.64 283.23 3.64L283.23 3.64L282.83 3.64Z"></path></g></svg>