<svg data-v-423bf9ae="" xmlns="http://www.w3.org/2000/svg" viewBox="0 0 236.31028520411678 60" class="font"><!----><!----><defs data-v-423bf9ae=""><linearGradient data-v-423bf9ae="" gradientTransform="rotate(25)" id="86610170-af47-41f7-9e3a-2dac9c641616" x1="0%" y1="0%" x2="100%" y2="0%"><stop data-v-423bf9ae="" offset="0%" style="stop-color: rgb(81, 6, 255); stop-opacity: 1;"></stop><stop data-v-423bf9ae="" offset="100%" style="stop-color: rgb(97, 203, 242); stop-opacity: 1;"></stop></linearGradient></defs><g data-v-423bf9ae="" id="793701fe-a9a8-4faf-9377-aec40164f3d6" fill="url(#86610170-af47-41f7-9e3a-2dac9c641616)" transform="matrix(5.725190568780254,0,0,5.725190568780254,-7.958011169575386,-16.603052241785143)"><path d="M2.49 8.44L2.49 4.38L4.83 4.38C6.78 4.38 7.27 5.38 7.27 6.36C7.27 7.42 6.78 8.44 4.83 8.44ZM4.90 9.39C6.61 9.39 8.34 8.62 8.34 6.36C8.34 4.09 6.61 3.43 4.90 3.43L1.61 3.43C1.44 3.43 1.39 3.46 1.39 3.65L1.39 13.01C1.39 13.17 1.43 13.23 1.61 13.23L2.27 13.23C2.45 13.23 2.49 13.17 2.49 13.01L2.49 9.39ZM13.99 13.23C15.83 13.23 17.43 12.50 17.43 10.53C17.43 8.97 16.02 8.36 15.47 8.19L15.47 8.18C16.07 7.95 17.07 7.38 17.07 6.15C17.07 4.09 15.23 3.43 13.64 3.43L10.25 3.43C10.08 3.43 10.02 3.49 10.02 3.65L10.02 13.01C10.02 13.19 10.08 13.23 10.25 13.23ZM11.13 12.28L11.13 8.68L14.03 8.68C15.32 8.68 16.30 9.46 16.30 10.42C16.30 11.59 15.60 12.28 13.90 12.28ZM11.13 7.76L11.13 4.38L13.57 4.38C15.01 4.38 15.95 4.96 15.95 6.24C15.95 7.15 15.09 7.76 13.89 7.76ZM18.72 9.67C18.72 11.72 20.36 13.38 22.40 13.38C24.44 13.38 26.08 11.72 26.08 9.67C26.08 7.63 24.44 5.95 22.40 5.95C20.36 5.95 18.72 7.63 18.72 9.67ZM22.40 12.45C20.94 12.45 19.77 11.21 19.77 9.67C19.77 8.13 20.94 6.90 22.40 6.90C23.87 6.90 25.05 8.13 25.05 9.67C25.05 11.21 23.87 12.45 22.40 12.45ZM27.38 9.67C27.38 11.72 29.02 13.38 31.07 13.38C33.11 13.38 34.75 11.72 34.75 9.67C34.75 7.63 33.11 5.95 31.07 5.95C29.02 5.95 27.38 7.63 27.38 9.67ZM31.07 12.45C29.61 12.45 28.43 11.21 28.43 9.67C28.43 8.13 29.61 6.90 31.07 6.90C32.54 6.90 33.71 8.13 33.71 9.67C33.71 11.21 32.54 12.45 31.07 12.45ZM38.89 9.45L42.39 6.33C42.50 6.22 42.46 6.10 42.32 6.10L41.44 6.10C41.29 6.10 41.22 6.16 41.08 6.33L37.83 9.24L37.83 3.12C37.83 2.95 37.79 2.90 37.60 2.90L37.00 2.90C36.83 2.90 36.78 2.95 36.78 3.12L36.78 13.01C36.78 13.17 36.83 13.23 37.00 13.23L37.60 13.23C37.77 13.23 37.83 13.17 37.83 13.01L37.83 9.73L41.26 13.01C41.40 13.17 41.47 13.23 41.62 13.23L42.52 13.23C42.64 13.23 42.74 13.17 42.59 13.01Z"></path></g><!----><!----></svg>